<svg id="Layer_1" xmlns="http://www.w3.org/2000/svg" viewBox="0 0 63.2 53.7"><style>.st0{fill:#C83803;}</style><circle class="st0" cx="31.7" cy="17.6" r="2"/><circle class="st0" cx="19.1" cy="17.6" r="2"/><circle class="st0" cx="25.8" cy="17.6" r="2"/><path d="M45.7 0H5.5C2.5 0 0 2.5 0 5.5V29c0 3 2.5 5.5 5.5 5.5h2v7.2c0 .8.4 1.5 1.1 1.8.2.1.5.2.7.2.4 0 .9-.2 1.2-.5l8.9-8.7h26.3c3 0 5.5-2.5 5.5-5.5V5.5c0-3-2.4-5.5-5.5-5.5zm2.5 29c0 1.4-1.1 2.5-2.5 2.5h-28l-7.2 7.4v-7.3h-5C4.1 31.5 3 30.4 3 29V5.5C3 4.1 4.1 3 5.5 3h40.2c1.4 0 2.5 1.1 2.5 2.5V29z"/><path d="M57.7 10h-1.4c-.6 0-1 .4-1 1v1c0 .6.4 1 1 1h1.4c1.4 0 2.5 1.1 2.5 2.5V39c0 1.4-1.1 2.5-2.5 2.5h-5v7.3l-7.2-7.4H21.2c-.6 0-1 .4-1 1v1c0 .6.4 1 1 1h22.6l8.9 8.7c.3.3.8.5 1.2.5.3 0 .5-.1.7-.2.7-.3 1.1-1 1.1-1.8v-7.2h2c3 0 5.5-2.5 5.5-5.5V15.5c0-3-2.4-5.5-5.5-5.5z"/></svg>