<svg id="Layer_1" xmlns="http://www.w3.org/2000/svg" viewBox="0 0 65.3 64.2"><style>.st0{fill:#C83803;}</style><path d="M49.9 30.4c-1.7 0-3.5-.3-5.1-.8-.5-.2-.8-.8-.6-1.3s.8-.8 1.3-.6c1.4.5 2.9.7 4.4.7 7.4 0 13.4-5.9 13.4-13.1S57.2 2 49.9 2 36.5 7.9 36.5 15.2c0 1.5.3 3 .7 4.3.2.5-.1 1.1-.6 1.3-.5.2-1.1-.1-1.3-.6-.6-1.6-.9-3.3-.9-5 0-8.4 7-15.2 15.5-15.2s15.4 6.8 15.4 15.2-6.9 15.2-15.4 15.2z"/><path d="M56.3 41.1l-4.6 4.6c-.4-.2-.8-.3-1.2-.4L39.1 34.1c.2-.6.3-1.3.3-2s-.1-1.4-.3-2l11.5-11.3c.4-.1.8-.2 1.2-.4l4.6 4.6c.2.2.4.3.7.3.2 0 .5-.1.7-.3.4-.4.4-1 0-1.4L53.2 17c.3-.5.5-1.1.5-1.8 0-2.1-1.7-3.8-3.8-3.8-.7 0-1.4.2-1.9.5l-4.6-4.6c-.4-.4-1.1-.4-1.5 0-.4.4-.4 1 0 1.4l4.6 4.6c-.2.4-.3.8-.4 1.2L34.7 25.7c-.6-.2-1.3-.3-2-.3s-1.4.1-2 .3L19.3 14.5c0-.4-.2-.8-.4-1.2l4.6-4.6c.4-.4.4-1 0-1.4-.4-.4-1.1-.4-1.5 0l-4.6 4.6c-.6-.3-1.2-.5-1.9-.5-2.1 0-3.8 1.7-3.8 3.8 0 .6.2 1.3.5 1.8l-4.6 4.6c-.4.4-.4 1 0 1.4.2.2.4.3.7.3.2 0 .5-.1.7-.3l4.7-4.5c.4.2.8.3 1.2.4l11.5 11.2c-.2.6-.3 1.3-.3 2s.1 1.4.3 2L15 45.3c-.4.1-.8.2-1.2.4l-4.6-4.6c-.4-.4-1.1-.4-1.5 0-.4.4-.4 1 0 1.4l4.6 4.6c-.3.5-.5 1.1-.5 1.8 0 2.1 1.7 3.8 3.8 3.8.7 0 1.3-.2 1.9-.5l4.6 4.6c.2.2.4.3.7.3.2 0 .5-.1.7-.3.4-.4.4-1 0-1.4l-4.6-4.6c.2-.4.3-.8.4-1.2l11.4-11.2c.6.2 1.3.3 2 .3s1.4-.1 2-.3l11.5 11.2c0 .4.2.8.4 1.2L42 55.4c-.4.4-.4 1 0 1.4.2.2.4.3.7.3.2 0 .5-.1.7-.3l4.6-4.6c.6.3 1.2.5 1.9.5 2.1 0 3.8-1.7 3.8-3.8 0-.6-.2-1.3-.5-1.8l4.6-4.6c.4-.4.4-1 0-1.4-.4-.4-1.1-.4-1.5 0zM48.7 14c.3-.3.7-.5 1.2-.5.9 0 1.7.8 1.7 1.7 0 .5-.2.9-.5 1.2-.3.3-.7.5-1.2.5-1 0-1.8-.8-1.7-1.7 0-.5.2-.9.5-1.2zm-2.2 3.1c.4.6.9 1.1 1.5 1.4l-9.9 9.7c-.4-.5-.9-1-1.5-1.4l9.9-9.7zm-30.9-.2c-.5 0-.9-.2-1.2-.5-.3-.3-.5-.7-.5-1.2 0-.9.7-1.7 1.7-1.7.5 0 .9.2 1.2.5s.5.7.5 1.2c0 .9-.7 1.7-1.7 1.7zm1.8 1.5c.6-.3 1.2-.8 1.5-1.4l9.9 9.7c-.6.4-1.1.8-1.5 1.4l-9.9-9.7zm-.7 31.8c-.3.3-.7.5-1.2.5-.9 0-1.7-.8-1.7-1.7 0-.5.2-.9.5-1.2.3-.3.7-.5 1.2-.5 1 0 1.8.7 1.7 1.7 0 .5-.2.9-.5 1.2zm2.2-3.1c-.4-.6-.9-1.1-1.5-1.4l9.9-9.7c.4.5.9 1 1.5 1.4l-9.9 9.7zm13.8-10.4c-2.6 0-4.7-2.1-4.7-4.6s2.1-4.6 4.7-4.6 4.7 2.1 4.7 4.6-2.1 4.6-4.7 4.6zm13.9 10.4l-9.9-9.7c.6-.4 1.1-.8 1.5-1.4l9.9 9.7c-.6.3-1.2.8-1.5 1.4zm3.3 3.6c-.5 0-.9-.2-1.2-.5-.4-.3-.6-.8-.5-1.2 0-.9.7-1.7 1.7-1.7.5 0 .9.2 1.2.5.3.3.5.7.5 1.2 0 .9-.7 1.7-1.7 1.7z"/><path class="st0" d="M28.7 20.8c-.5-.2-.8-.8-.6-1.3.5-1.4.7-2.8.7-4.3 0-7.2-6-13.1-13.4-13.1S2.1 7.9 2.1 15.2s6 13.1 13.4 13.1c1.5 0 3-.3 4.5-.8.5-.2 1.1.1 1.3.6.2.5-.1 1.1-.6 1.3-1.7.6-3.4.9-5.2.9C6.9 30.4 0 23.6 0 15.2S6.9 0 15.4 0s15.4 6.8 15.4 15.2c0 1.7-.3 3.4-.8 5-.1.5-.7.8-1.3.6z"/><path d="M15.5 33.8c1.7 0 3.5.3 5.1.9.5.2.8.8.6 1.3-.2.5-.8.8-1.3.6-1.4-.5-2.9-.7-4.4-.7C8.2 35.8 2.2 41.7 2.2 49c0 7.2 6 13.1 13.4 13.1S28.9 56.2 28.9 49c0-1.5-.3-3-.7-4.3-.2-.5.1-1.1.6-1.3s1.1.1 1.3.6c.6 1.6.9 3.3.9 5 0 8.4-6.9 15.2-15.4 15.2S.1 57.4.1 49 7 33.8 15.5 33.8z"/><path class="st0" d="M36.6 43.3c.5.2.8.8.6 1.3-.5 1.4-.7 2.9-.7 4.3 0 7.2 6 13.1 13.4 13.1s13.3-5.8 13.3-13-6-13.1-13.4-13.1c-1.5 0-3 .2-4.4.7-.5.2-1.1-.1-1.3-.6s.1-1.1.6-1.3c1.6-.6 3.4-.9 5.1-.9 8.5 0 15.4 6.8 15.4 15.2s-6.9 15.2-15.4 15.2S34.4 57.4 34.4 49c0-1.7.3-3.4.9-5 .2-.6.8-.9 1.3-.7z"/></svg>