<svg id="Layer_1" xmlns="http://www.w3.org/2000/svg" viewBox="0 0 58 58"><style>.st0{fill:none;stroke:#000000;stroke-width:2;} .st1{stroke:#000000;stroke-width:2;} .st2{fill:#D03C3C;stroke:#D03C3C;stroke-width:2;} .st3{fill:none;stroke:#D03C3C;stroke-width:2;}</style><path class="st0" d="M11 1h45L43 24H11C5.5 24 1 19.5 1 14v-3C1 5.5 5.5 1 11 1zM17 24h19v6H17v-6z"/><path class="st1" d="M24 30h4v22h-4V30z"/><path class="st1" d="M4 49h24v3H4v-3z"/><path class="st2" d="M2 45h3v12H2V45z"/><path class="st0" d="M52.2 8H56v11h-9l5.2-11z"/><path class="st3" d="M37.5 12c1.9 0 3.5 1.6 3.5 3.5S39.4 19 37.5 19 34 17.4 34 15.5s1.6-3.5 3.5-3.5z"/></svg>