<svg id="Layer_1" xmlns="http://www.w3.org/2000/svg" viewBox="0 0 36 72"><style>.st0{fill:none;stroke:#000000;stroke-width:2;} .st1{fill:none;stroke:#C83803;stroke-width:2;}</style><path class="st0" d="M11 1h14c5.5 0 10 4.5 10 10v50c0 5.5-4.5 10-10 10H11C5.5 71 1 66.5 1 61V11C1 5.5 5.5 1 11 1z"/><path class="st0" d="M1.4 10.8h33.2v42.9H1.4V10.8zM18 58.1c1.9 0 3.4 1.5 3.4 3.4s-1.5 3.4-3.4 3.4-3.4-1.5-3.4-3.4 1.5-3.4 3.4-3.4z"/><path class="st1" d="M24.8 34.5h-3.4v3.4c0 1.9-1.5 3.4-3.4 3.4s-3.4-1.5-3.4-3.4v-3.4h-3.4c-1.9 0-3.4-1.5-3.4-3.4s1.5-3.4 3.4-3.4h3.4v-3.4c0-1.9 1.5-3.4 3.4-3.4s3.4 1.5 3.4 3.4v3.4h3.4c1.9 0 3.4 1.5 3.4 3.4 0 1.8-1.5 3.4-3.4 3.4z"/></svg>