<svg id="Layer_1" xmlns="http://www.w3.org/2000/svg" viewBox="0 0 46 46"><style>.st0{opacity:0.302;fill:#C83803;enable-background:new ;} .st1{fill:#C83803;} .st2{fill:#FFFFFF;}</style><path class="st0" d="M23 0c12.7 0 23 10.3 23 23S35.7 46 23 46 0 35.7 0 23 10.3 0 23 0z"/><path class="st1" d="M23 8c8.3 0 15 6.7 15 15s-6.7 15-15 15S8 31.3 8 23 14.7 8 23 8z"/><path class="st2" d="M16.1 22.5c-.1-.1-.1-.3-.1-.4 0-.1.1-.2.2-.4l.7-.7c.2-.2.5-.2.7 0v.1l2.8 3c.1.1.2.1.4 0l6.7-7h.1c.2-.2.5-.2.7 0l.7.7c.2.2.2.5 0 .7l-8 8.3c-.1.1-.2.1-.4.1s-.2-.1-.4-.1l-3.9-4.2-.2-.1z"/></svg>