<svg id="Layer_1" xmlns="http://www.w3.org/2000/svg" viewBox="0 0 44 55"><style>.st0{fill:#C83803;}</style><path class="st0" d="M43.5 26.6v.3c-2.4 10.6-19.4 26.9-20.1 27.6-.4.3-.9.5-1.4.5s-1-.1-1.3-.5C20 53.8 2.9 37.5.5 26.7v-.3c-.4-1.5-.5-3-.5-4.4C0 9.9 9.9 0 22 0s22 9.9 22 22c0 1.5-.1 3.1-.5 4.6zM22 3.8C12 3.8 3.9 12 3.9 21.9c0 1.2.1 2.5.4 3.7v.2C6.1 33.9 18 46.3 22 50.4c4-4 15.9-16.4 17.7-24.3V26c.3-1.3.4-2.6.4-4C40.2 11.9 32 3.8 22 3.8zm0 23.3c-4 0-7.4-3.3-7.4-7.3s3.3-7.3 7.4-7.3 7.4 3.3 7.4 7.3-3.3 7.3-7.4 7.3zm0-10.9c-2 0-3.5 1.6-3.5 3.5s1.6 3.5 3.5 3.5 3.5-1.6 3.5-3.5c.1-1.9-1.5-3.5-3.5-3.5z"/></svg>